<svg width="26" height="24" viewBox="0 0 26 24" fill="none" xmlns="http://www.w3.org/2000/svg">
<path d="M3.9807 4.55667H5.68615L4.80655 0H3.10398L3.9807 4.55667ZM10.2869 2.85462H7.34086V4.50275H15.9213V4.55667C15.197 5.74761 14.8017 6.34998 14.7316 6.36931H8.47828V18.5055C8.47828 18.9189 8.56404 19.3019 8.73733 19.6613C8.96055 20.137 9.66809 20.3746 10.8563 20.3746H21.6064L22.9505 20.264C23.6402 20.0182 23.9826 19.4316 23.9826 18.5054V6.36916H16.7481V6.31481C17.4726 5.12402 17.8675 4.52106 17.9375 4.50261H25.122V2.85462H22.1752C22.3121 1.99328 22.3807 1.24514 22.3807 0.601791V0.548166H20.7287C20.6239 2.08483 20.5036 2.85462 20.3649 2.85462H12.0451C11.9074 2.4605 11.8033 1.69347 11.7349 0.548166H10.0806C10.0806 1.24514 10.1483 2.01217 10.2869 2.85462ZM0.622601 7.41419H3.9807V16.4742C3.9807 17.1523 3.8256 17.9571 3.51485 18.8917C2.73933 20.5289 1.56977 21.7549 0 22.5706C0.0865787 22.8919 0.311848 23.3674 0.672798 24C2.49054 23.2302 3.81767 22.0038 4.65473 20.3183H4.75622C4.75622 20.4669 4.86017 20.7204 5.06602 21.0881C6.04013 23.0278 7.45302 24 9.30536 24H26V22.4596H15.5583L9.6685 22.4061C8.82227 22.233 8.16808 21.9389 7.70304 21.5277C6.35772 20.3284 5.68656 18.643 5.68656 16.4742V5.76693H0.623285V7.41419H0.622601ZM22.3309 8.017V10.4346H10.1319V8.017H22.3309ZM22.3309 12.0822V14.6082H10.1319V12.0822H22.3309ZM22.3309 16.2555V17.6814C22.3309 17.9947 22.2961 18.2334 22.226 18.3973C22.226 18.7269 21.5882 18.8917 20.3141 18.8917H12.1491C11.1148 18.8917 10.5979 18.8382 10.5979 18.7273C10.2873 18.7273 10.1318 18.3248 10.1318 17.517V16.2555H22.3309Z" fill="#B48956"/>
</svg>
