<svg width="30" height="30" viewBox="0 0 30 30" fill="none" xmlns="http://www.w3.org/2000/svg">
<path d="M15 0C6.716 0 0 6.5575 0 14.646C0 22.7345 6.716 29.292 15 29.292C23.284 29.292 30 22.7345 30 14.646C30 6.5575 23.284 0 15 0ZM22.3125 9.31437C22.2265 10.6594 19.672 20.6987 19.672 20.6987C19.672 20.6987 19.5195 21.286 18.972 21.3065C18.7725 21.3133 18.5295 21.2743 18.24 21.0307C17.663 20.5459 16.326 19.6193 15.0835 18.782C14.7085 19.0901 13.959 19.7233 13.184 20.4795C12.0865 21.5516 12.2275 20.4795 12.2275 20.4795L12.565 16.9801L12.5735 16.9855C12.5885 16.9498 12.6135 16.92 12.6135 16.92C12.6135 16.92 19.0825 11.3057 19.2545 10.7165C19.2675 10.6711 19.218 10.6481 19.15 10.6677C18.7205 10.8219 11.272 15.4144 10.4505 15.9217C10.402 15.9514 10.2675 15.9319 10.2675 15.9319L6.6545 14.7827C6.6545 14.7827 6.223 14.6113 6.362 14.2237C6.3905 14.1436 6.448 14.0758 6.621 13.9581C7.422 13.4133 21.441 8.49321 21.441 8.49321C21.441 8.49321 21.837 8.36286 22.071 8.44976C22.1775 8.48931 22.246 8.53374 22.3035 8.69728C22.3245 8.75684 22.3365 8.8828 22.335 9.00875C22.332 9.09858 22.3205 9.18255 22.3125 9.31437Z" fill="#B48956"/>
</svg>
