<svg width="347" height="66" viewBox="0 0 347 66" fill="none" xmlns="http://www.w3.org/2000/svg">
<path d="M66.2891 4.66406C66.6172 4.71094 66.875 4.85937 67.0625 5.10938C67.25 5.35938 67.3281 5.64844 67.2969 5.97656C67.25 6.30469 67.1016 6.57031 66.8516 6.77344C66.6016 6.96094 66.3125 7.03125 65.9844 6.98438C60.2656 6.09375 54.5 5.69531 48.6875 5.78906C42.8906 5.86719 37.1172 6.24219 31.3672 6.91406C30.6016 7.00781 29.6875 7.13281 28.625 7.28906C23.2031 19.5859 19.0234 32.3047 16.0859 45.4453C17.0391 48.2109 17.3594 51.2422 17.0469 54.5391C16.75 57.8359 15.5078 61.4609 13.3203 65.4141C13.0234 65.7578 12.6797 65.9219 12.2891 65.9062C11.8984 65.8906 11.5625 65.7422 11.2812 65.4609C11 65.1797 10.8828 64.8125 10.9297 64.3594C10.9453 64.2969 10.9531 64.2109 10.9531 64.1016C10.9688 64.0078 10.9844 63.9062 11 63.7969C11.0156 63.5625 11.0312 63.3906 11.0469 63.2812C11.4062 59.8906 11.8594 56.5078 12.4062 53.1328C12.8906 50.1328 13.4453 47.1406 14.0703 44.1562C12.8359 41.0156 11.0547 37.9375 8.72656 34.9219C7.99219 33.875 7.21875 32.8359 6.40625 31.8047C5.125 30.1797 3.92969 28.5 2.82031 26.7656C1.72656 25.0312 0.914062 23.1641 0.382812 21.1641C0.148438 19.8359 0.351562 18.5938 0.992188 17.4375C1.63281 16.2656 2.46875 15.2891 3.5 14.5078C6.10938 12.6016 9.375 11.0078 13.2969 9.72656C17.2344 8.44531 21.4219 7.42188 25.8594 6.65625C26.5938 4.92188 27.3516 3.20313 28.1328 1.5C28.4297 0.953125 28.8281 0.679688 29.3281 0.679688C29.8281 0.664062 30.2344 0.84375 30.5469 1.21875C30.875 1.59375 30.9297 2.08594 30.7109 2.69531C30.1797 3.82031 29.6562 4.96094 29.1406 6.11719C36.625 5.05469 43.1328 4.41406 48.6641 4.19531C51.6016 4.07031 54.5312 4.03125 57.4531 4.07812C60.3906 4.125 63.3359 4.32031 66.2891 4.66406ZM13.3906 61.2188C15.3281 56.9062 15.9766 52.8125 15.3359 48.9375C14.4766 53.1562 13.7656 57.3984 13.2031 61.6641C13.2656 61.5078 13.3281 61.3594 13.3906 61.2188ZM17.9141 28.8984C20.0234 21.7266 22.5156 14.6953 25.3906 7.80469C23.0156 8.19531 20.4844 8.72656 17.7969 9.39844C15.1094 10.0547 12.5469 10.8594 10.1094 11.8125C7.67188 12.7656 5.64062 13.8984 4.01562 15.2109C2.39062 16.5078 1.45312 17.9922 1.20312 19.6641C1.32812 21.6172 2.00781 23.5859 3.24219 25.5703C4.49219 27.5391 5.99219 29.5938 7.74219 31.7344C8.96094 33.2656 10.1641 34.8672 11.3516 36.5391C12.5547 38.1953 13.6328 39.9531 14.5859 41.8125C15.5547 37.4688 16.6641 33.1641 17.9141 28.8984ZM44.1875 30.6094C44.2656 30.5312 44.3438 30.5078 44.4219 30.5391C44.5 30.5703 44.5469 30.625 44.5625 30.7031C44.5938 30.7812 44.5703 30.8516 44.4922 30.9141C43.0703 31.9922 41.5703 32.9297 39.9922 33.7266C38.4141 34.5234 36.8125 35.2344 35.1875 35.8594C34.8281 35.9844 34.4531 36.125 34.0625 36.2812C34.0469 36.2812 34.0391 36.2812 34.0391 36.2812C34.3516 36.75 34.5547 37.25 34.6484 37.7812C34.6328 38.9688 34.3203 40.1094 33.7109 41.2031C33.1172 42.2969 32.4062 43.2891 31.5781 44.1797C31.5625 44.1953 31.5391 44.2188 31.5078 44.25C31.2422 44.5156 30.8828 44.8438 30.4297 45.2344C29.9609 45.625 29.5 45.9297 29.0469 46.1484C28.5781 46.3672 28.2109 46.3359 27.9453 46.0547C27.4141 44.9609 27.4219 43.1406 27.9688 40.5938C28.5156 38.0469 29.3516 35.2422 30.4766 32.1797C31.5859 29.1172 32.7188 26.2656 33.875 23.625C35.0469 20.9844 35.9688 19.0234 36.6406 17.7422C36.7812 17.5078 36.9141 17.2734 37.0391 17.0391C37.3672 16.4141 37.7266 15.8125 38.1172 15.2344C38.5078 14.6406 38.9922 14.125 39.5703 13.6875C39.8672 13.4688 40.1562 13.4375 40.4375 13.5938C40.7188 13.75 40.8438 14 40.8125 14.3438C40.4688 16.0625 40.0234 17.7422 39.4766 19.3828C38.3516 22.4922 36.8594 25.4375 35 28.2188C34.9844 28.25 34.9453 28.3047 34.8828 28.3828C34.7109 28.6328 34.4297 29.0391 34.0391 29.6016C33.6641 30.1484 33.2656 30.6875 32.8438 31.2188C32.3281 32.5781 31.8281 33.9453 31.3438 35.3203C31.3906 35.3047 31.4375 35.2891 31.4844 35.2734C32.0781 35.1016 32.6094 35.1484 33.0781 35.4141C34.8438 35.3359 36.8594 34.7734 39.125 33.7266C41.3906 32.6641 43.0781 31.625 44.1875 30.6094ZM39.3125 16.8281C38.5625 18.0781 37.8984 19.375 37.3203 20.7188C37.0703 21.25 36.8125 21.7812 36.5469 22.3125C35.4688 24.7188 34.4531 27.1406 33.5 29.5781C35.9219 26.4062 37.6875 22.9531 38.7969 19.2188C38.8281 19.0938 38.8594 18.9609 38.8906 18.8203C39.0938 18.1641 39.2344 17.5 39.3125 16.8281ZM32.0234 37.0078L32 36.9844C31.875 37.0156 31.7422 37.0469 31.6016 37.0781C31.2578 37.0469 31.0234 36.8984 30.8984 36.6328C30.7422 37.0859 30.5938 37.5469 30.4531 38.0156C30.2656 38.6406 30.0703 39.2656 29.8672 39.8906C29.5703 40.7656 29.3125 41.6406 29.0938 42.5156C28.875 43.4062 28.7578 44.2969 28.7422 45.1875C29.7578 44.5 30.6172 43.6484 31.3203 42.6328C32.0234 41.6172 32.5391 40.5391 32.8672 39.3984C32.9766 39.0078 33.0234 38.625 33.0078 38.25C32.9609 38 32.8359 37.7422 32.6328 37.4766C32.4453 37.2109 32.2422 37.0547 32.0234 37.0078ZM77.5859 30.5391C77.6641 30.6016 77.7109 30.6797 77.7266 30.7734C77.7422 30.8672 77.7188 30.9531 77.6562 31.0312C77.3438 31.4531 77.0078 31.8359 76.6484 32.1797C74.8516 33.9609 72.9219 35.5703 70.8594 37.0078C70.6875 37.1172 70.5234 37.2266 70.3672 37.3359C69.6953 37.7891 68.9922 38.2031 68.2578 38.5781C67.5234 38.9531 66.75 39.1719 65.9375 39.2344C65.0938 39.1719 64.5 38.8125 64.1562 38.1562C63.8125 37.5 63.6719 36.7969 63.7344 36.0469C63.7656 35.2188 63.8828 34.4062 64.0859 33.6094C63.6797 34.0781 63.2734 34.5156 62.8672 34.9219C62.3359 35.5312 61.7031 36.0391 60.9688 36.4453C60.0312 36.7891 59.3516 36.6953 58.9297 36.1641C58.5078 35.6172 58.375 34.8984 58.5312 34.0078C58.5781 33.7109 58.6562 33.3359 58.7656 32.8828C58.9062 32.3672 59.0156 31.8672 59.0938 31.3828C59.1875 30.8828 59.1719 30.5156 59.0469 30.2812C58.1875 29.5156 56.9141 29.1172 55.2266 29.0859C53.5547 29.0547 51.9062 29.1328 50.2812 29.3203C49.6719 29.3828 49.1172 29.4297 48.6172 29.4609C49.1172 30.2266 49.3203 31.1719 49.2266 32.2969C49.1484 33.4062 48.9453 34.3438 48.6172 35.1094C48.3047 35.9062 47.8359 36.6016 47.2109 37.1953C46.5859 37.7891 45.8438 38.1797 44.9844 38.3672C44.1094 38.3672 43.4844 38.0625 43.1094 37.4531C42.7188 36.8438 42.5156 36.1328 42.5 35.3203C42.4844 34.4922 42.5781 33.7578 42.7812 33.1172C43.0469 32.1328 43.4922 31.2344 44.1172 30.4219C44.7422 29.5938 45.5156 28.9531 46.4375 28.5C46.9219 28.3281 47.2891 28.3984 47.5391 28.7109C47.9453 28.6953 48.4609 28.6719 49.0859 28.6406C49.7109 28.6094 50.2891 28.5781 50.8203 28.5469C51.1172 28.5312 51.3516 28.5156 51.5234 28.5C51.8984 28.4844 52.3281 28.4688 52.8125 28.4531C53.6875 28.375 54.6172 28.3438 55.6016 28.3594C56.6016 28.375 57.5156 28.5156 58.3438 28.7812C59.1875 29.0312 59.8125 29.5 60.2188 30.1875C60.25 30.25 60.2812 30.3203 60.3125 30.3984C60.3594 30.4766 60.3906 30.5547 60.4062 30.6328C60.4375 30.6953 60.4531 30.7266 60.4531 30.7266C60.5938 31.4766 60.5703 32.2266 60.3828 32.9766C60.3359 33.1484 60.3047 33.3203 60.2891 33.4922C60.2422 33.7266 60.1797 33.9531 60.1016 34.1719C59.9609 34.6094 59.8906 35.0312 59.8906 35.4375C59.8906 35.4531 59.9062 35.4766 59.9375 35.5078C59.9844 35.5391 60.0312 35.5625 60.0781 35.5781C60.125 35.5781 60.1719 35.5781 60.2188 35.5781C60.9062 35.3125 61.5938 34.7344 62.2812 33.8438C62.9844 32.9375 63.625 32.0156 64.2031 31.0781C64.5469 30.5312 64.8516 30.0781 65.1172 29.7188L65.3984 29.4141C65.6172 29.2734 65.8516 29.2344 66.1016 29.2969C66.3672 29.3438 66.5703 29.4688 66.7109 29.6719C66.8359 29.8438 66.8906 30.0234 66.875 30.2109C66.8594 30.3984 66.7891 30.5703 66.6641 30.7266C66.6016 30.8047 66.5469 30.875 66.5 30.9375C66.5 30.9375 66.4922 30.9453 66.4766 30.9609C66.4766 30.9766 66.4688 30.9922 66.4531 31.0078C66.4531 31.0078 66.4453 31.0156 66.4297 31.0312C66.4297 31.0469 66.4219 31.0547 66.4062 31.0547C66.2031 31.3516 66.0156 31.6484 65.8438 31.9453C65.6094 32.3828 65.4141 32.8281 65.2578 33.2812C64.9141 34.2031 64.7031 35.1484 64.625 36.1172C64.5469 37.0703 64.7422 37.7734 65.2109 38.2266C65.6953 38.6641 66.6094 38.5781 67.9531 37.9688C69.5 37.1875 70.9531 36.2656 72.3125 35.2031C73.6875 34.125 74.9766 32.9688 76.1797 31.7344C76.5234 31.375 76.8281 31.0078 77.0938 30.6328C77.1562 30.5547 77.2344 30.5078 77.3281 30.4922C77.4219 30.4609 77.5078 30.4766 77.5859 30.5391ZM47.4688 28.7109C47.4688 28.6953 47.4688 28.6797 47.4688 28.6641C47.4688 28.6484 47.4688 28.6484 47.4688 28.6641C47.4688 28.6641 47.4688 28.6719 47.4688 28.6875C47.4688 28.6875 47.4688 28.6953 47.4688 28.7109ZM44.8672 37.2891C46.0391 37.0234 46.9062 36.3594 47.4688 35.2969C48.0469 34.2188 48.3516 33.1016 48.3828 31.9453C48.3828 31.5547 48.3438 31.1484 48.2656 30.7266C48.1875 30.3047 48.0078 29.9688 47.7266 29.7188C47.6484 29.9062 47.4922 30.0625 47.2578 30.1875C46.3984 30.625 45.7031 31.2578 45.1719 32.0859C44.6406 32.8984 44.3047 33.7891 44.1641 34.7578C44.1172 35.0078 44.0938 35.3203 44.0938 35.6953C44.0938 36.0703 44.1484 36.4141 44.2578 36.7266C44.3672 37.0391 44.5703 37.2266 44.8672 37.2891ZM46.1562 31.6172C46.1562 31.6328 46.1484 31.6406 46.1328 31.6406C46.1484 31.6406 46.1562 31.6328 46.1562 31.6172ZM46.1094 20.3438L46.1328 20.2969C46.1328 20.3125 46.125 20.3203 46.1094 20.3203V20.3438ZM64.7656 27.9375C65.1094 27.6562 65.4453 27.3672 65.7734 27.0703C66.0078 26.7734 66.0078 26.5 65.7734 26.25C65.5391 26.0625 65.3125 26.0391 65.0938 26.1797C64.8438 26.4453 64.6016 26.6797 64.3672 26.8828C63.8984 27.2891 63.4844 27.4141 63.125 27.2578C62.9688 26.8828 62.9141 26.4766 62.9609 26.0391C62.9297 25.6641 62.6562 25.5156 62.1406 25.5938C61.6406 25.75 61.4219 26 61.4844 26.3438C61.4844 26.4062 61.4922 26.4766 61.5078 26.5547C61.6484 27.3516 61.9922 27.9219 62.5391 28.2656C63.0859 28.6094 63.8281 28.5 64.7656 27.9375ZM105.922 30.8906C106 30.8125 106.078 30.7891 106.156 30.8203C106.25 30.8516 106.312 30.9062 106.344 30.9844C106.375 31.0625 106.359 31.1484 106.297 31.2422C105.016 32.4766 103.414 33.8281 101.492 35.2969C99.5703 36.7656 97.5547 38.0156 95.4453 39.0469C93.3516 40.0781 91.4062 40.5547 89.6094 40.4766C88.375 40.2266 87.7109 39.5781 87.6172 38.5312C87.5078 37.4688 87.75 36.2656 88.3438 34.9219C88.9375 33.5781 89.6562 32.3438 90.5 31.2188C91.3438 30.0781 92.0859 29.2969 92.7266 28.875C93.1484 28.5625 93.6328 28.3438 94.1797 28.2188C94.7422 28.0938 95.2734 28.1875 95.7734 28.5C96.0859 28.7344 96.2188 29.0156 96.1719 29.3438C96.125 29.6562 95.9609 29.9062 95.6797 30.0938C95.4141 30.2656 95.1094 30.2656 94.7656 30.0938C94 30.2812 93.25 30.7812 92.5156 31.5938C91.7969 32.4062 91.1562 33.3125 90.5938 34.3125C90.0312 35.3125 89.6172 36.1719 89.3516 36.8906C89.3047 37.0469 89.2578 37.2109 89.2109 37.3828C89.0234 37.8984 88.9219 38.4062 88.9062 38.9062C88.8906 39.3906 89.1641 39.6797 89.7266 39.7734C91.3984 39.8828 93.0078 39.5938 94.5547 38.9062C96.1016 38.2031 97.5703 37.4062 98.9609 36.5156C99.1016 36.4219 99.2344 36.3359 99.3594 36.2578C101.156 35.1016 102.844 33.8125 104.422 32.3906C104.953 31.9219 105.453 31.4219 105.922 30.8906ZM129.688 30.6328C129.781 30.5547 129.867 30.5391 129.945 30.5859C130.039 30.6172 130.102 30.6797 130.133 30.7734C130.164 30.8516 130.141 30.9297 130.062 31.0078C127.922 32.9141 125.43 34.0703 122.586 34.4766C122.227 34.5234 121.859 34.5391 121.484 34.5234C121.109 34.5078 120.766 34.3906 120.453 34.1719C119.875 33.7031 119.414 33.1484 119.07 32.5078C119.008 32.4141 118.938 32.3047 118.859 32.1797C118.703 31.9141 118.523 31.6562 118.32 31.4062C118.133 31.1562 117.922 31.0078 117.688 30.9609C117.156 31.2891 116.703 31.7422 116.328 32.3203C116.234 32.4609 116.141 32.5938 116.047 32.7188C115.797 33.0469 115.555 33.3828 115.32 33.7266C114.914 34.3359 114.477 34.9375 114.008 35.5312C113.602 36.0938 113.188 36.3672 112.766 36.3516C112.344 36.3203 112.016 35.9531 111.781 35.25C111.422 33.5938 111.281 31.9219 111.359 30.2344C110.156 31.8125 108.984 33.4141 107.844 35.0391C107.328 35.7422 106.82 36.4453 106.32 37.1484C106.242 37.2734 106.156 37.3906 106.062 37.5C105.656 38.0781 105.234 38.6484 104.797 39.2109C104.766 39.2578 104.734 39.2969 104.703 39.3281C104.609 39.4688 104.477 39.5859 104.305 39.6797C104.148 39.7422 104.008 39.7266 103.883 39.6328C103.758 39.5391 103.703 39.4062 103.719 39.2344C103.781 38.7969 103.844 38.3516 103.906 37.8984C103.969 37.4297 104.039 36.9609 104.117 36.4922C104.258 35.7422 104.422 34.9922 104.609 34.2422C104.672 34.0547 104.727 33.8594 104.773 33.6562C104.805 33.5 104.844 33.3359 104.891 33.1641C105.109 32.3359 105.32 31.5703 105.523 30.8672C105.664 30.4609 105.898 30.2344 106.227 30.1875C106.555 30.1406 106.844 30.2266 107.094 30.4453C107.344 30.6641 107.414 30.9844 107.305 31.4062C106.914 32.5625 106.492 33.75 106.039 34.9688C105.977 35.1562 105.914 35.3359 105.852 35.5078C105.695 36.0078 105.5 36.5078 105.266 37.0078C105.25 37.0547 105.234 37.1016 105.219 37.1484C105.328 36.9609 105.438 36.7812 105.547 36.6094C106.969 34.3125 108.391 31.9688 109.812 29.5781C109.891 29.4375 109.969 29.2969 110.047 29.1562C110.141 29 110.242 28.8359 110.352 28.6641C110.773 27.9453 111.195 27.2656 111.617 26.625C111.867 26.3125 112.148 26.1641 112.461 26.1797C112.773 26.1797 113.039 26.3047 113.258 26.5547C113.477 26.7891 113.562 27.0938 113.516 27.4688C113.234 28.1875 113.062 29.1719 113 30.4219C112.938 31.6562 113.008 32.7734 113.211 33.7734C113.539 33.4297 113.852 33.0859 114.148 32.7422C114.711 32.0703 115.328 31.4297 116 30.8203C116.531 30.3203 117.055 30.0469 117.57 30C118.086 29.9375 118.523 30.2734 118.883 31.0078C118.992 31.2109 119.117 31.4297 119.258 31.6641C119.523 32.2109 119.844 32.7344 120.219 33.2344C120.594 33.7188 121.039 33.9844 121.555 34.0312C122.617 34.0469 123.656 33.8906 124.672 33.5625C125.703 33.2344 126.672 32.8047 127.578 32.2734C128.359 31.8047 129.062 31.2578 129.688 30.6328ZM130.906 31.8516C130.906 31.8672 130.898 31.875 130.883 31.875C130.898 31.875 130.906 31.8672 130.906 31.8516ZM147.359 30.6328C147.844 30.4922 148.047 30.5469 147.969 30.7969C147.891 31.0312 147.641 31.3828 147.219 31.8516C146.797 32.3047 146.312 32.7812 145.766 33.2812C145.219 33.7656 144.727 34.1953 144.289 34.5703C143.867 34.9297 143.609 35.1406 143.516 35.2031C143.156 35.4688 142.789 35.75 142.414 36.0469C141.477 36.7969 140.5 37.4844 139.484 38.1094C138.469 38.7188 137.367 39.0938 136.18 39.2344C135.289 39.125 134.688 38.7578 134.375 38.1328C134.062 37.5078 133.93 36.7812 133.977 35.9531C134.023 35.125 134.141 34.3438 134.328 33.6094C133.562 34.5469 132.703 35.3906 131.75 36.1406C130.812 36.7031 130.07 36.8125 129.523 36.4688C128.977 36.125 128.633 35.5547 128.492 34.7578C128.352 33.9609 128.422 33.1641 128.703 32.3672C128.953 31.4141 129.266 30.7891 129.641 30.4922C130.031 30.1953 130.383 30.1094 130.695 30.2344C131.023 30.3594 131.219 30.5938 131.281 30.9375C131.359 31.2656 131.203 31.5938 130.812 31.9219C130.828 31.9219 130.844 31.9219 130.859 31.9219C130.875 31.9062 130.883 31.8906 130.883 31.875C130.867 31.8906 130.852 31.9141 130.836 31.9453C130.539 32.4453 130.281 33.0234 130.062 33.6797C129.859 34.3203 129.875 34.9141 130.109 35.4609C130.469 35.6172 130.883 35.5 131.352 35.1094C131.82 34.7031 132.281 34.1953 132.734 33.5859C133.188 32.9609 133.578 32.3984 133.906 31.8984C134.094 31.6172 134.242 31.3984 134.352 31.2422C134.477 31.0703 134.602 30.875 134.727 30.6562C134.992 30.1406 135.336 29.7344 135.758 29.4375C136.039 29.2656 136.305 29.2422 136.555 29.3672C136.82 29.4766 137 29.6719 137.094 29.9531C137.188 30.2188 137.133 30.4766 136.93 30.7266C136.867 30.8047 136.812 30.875 136.766 30.9375C136.75 30.9375 136.742 30.9375 136.742 30.9375L136.766 30.9609C136.75 30.9766 136.727 31 136.695 31.0312C136.68 31.0469 136.672 31.0625 136.672 31.0781C136.453 31.3594 136.266 31.6484 136.109 31.9453C135.422 33.2422 135.008 34.6172 134.867 36.0703C134.836 37.7578 135.367 38.5547 136.461 38.4609C137.57 38.3672 138.898 37.7891 140.445 36.7266C142.008 35.6641 143.453 34.5234 144.781 33.3047C146.109 32.0859 146.969 31.1953 147.359 30.6328ZM149.422 30.375C149.438 30.375 149.445 30.3672 149.445 30.3516C149.445 30.3672 149.438 30.375 149.422 30.375ZM154.602 30.5156C153.539 32.1719 152.547 33.6719 151.625 35.0156C150.844 36.0156 149.977 36.8906 149.023 37.6406C148.086 38.2031 147.344 38.3125 146.797 37.9688C146.25 37.625 145.906 37.0547 145.766 36.2578C145.625 35.4609 145.711 34.4766 146.023 33.3047C146.586 31.7266 147.062 30.7891 147.453 30.4922C147.828 30.1953 148.172 30.1094 148.484 30.2344C148.812 30.3594 149.016 30.5938 149.094 30.9375C149.156 31.2656 148.992 31.5938 148.602 31.9219H148.648L148.625 31.9453C148.062 33.0703 147.625 34.0625 147.312 34.9219C147.125 35.7344 147.148 36.4141 147.383 36.9609C147.742 37.1172 148.156 36.9922 148.625 36.5859C149.094 36.1953 149.555 35.6953 150.008 35.0859C150.461 34.4609 150.852 33.8984 151.18 33.3984C151.367 33.1172 151.516 32.8984 151.625 32.7422C151.75 32.5703 151.875 32.375 152 32.1562C153.062 30.5625 154.078 29.2891 155.047 28.3359C155.234 28.1797 155.406 28.1562 155.562 28.2656C155.734 28.375 155.875 28.5547 155.984 28.8047C156.078 29.1172 155.961 29.8281 155.633 30.9375C155.461 31.6562 155.344 32.3359 155.281 32.9766C155.219 33.6016 155.32 34.1562 155.586 34.6406C156.273 35.2812 157.078 35.5703 158 35.5078C158.938 35.4453 159.875 35.2109 160.812 34.8047C161.766 34.3984 162.594 33.9922 163.297 33.5859C163.406 33.5234 163.523 33.4531 163.648 33.375C164.992 32.6406 166.18 31.7344 167.211 30.6562C167.289 30.5625 167.375 30.5312 167.469 30.5625C167.562 30.5781 167.633 30.625 167.68 30.7031C167.727 30.7812 167.719 30.8672 167.656 30.9609C167.5 31.1484 167.336 31.3125 167.164 31.4531C166.211 32.1875 164.984 33.0156 163.484 33.9375C162 34.8594 160.484 35.5156 158.938 35.9062C157.406 36.2812 156.094 36.0234 155 35.1328C154.594 34.7109 154.359 34.0312 154.297 33.0938C154.234 32.3281 154.336 31.4688 154.602 30.5156ZM146.539 29.1797L146.516 29.2031C146.531 29.2031 146.539 29.2109 146.539 29.2266V29.1797ZM170.023 33.0469C170.242 33.1875 170.383 33.3359 170.445 33.4922C170.477 33.7266 170.445 33.9688 170.352 34.2188C170.07 34.9688 169.609 35.6875 168.969 36.375C168.312 37.0625 167.492 37.6562 166.508 38.1562C166.492 37.5938 166.57 37.0312 166.742 36.4688C166.914 35.9062 167.133 35.3359 167.398 34.7578L167.891 33.5391C168 33.2422 168.117 32.9453 168.242 32.6484C168.602 32.6641 168.977 32.7109 169.367 32.7891H169.391C169.609 32.8047 169.82 32.8906 170.023 33.0469ZM169.789 36.8906C170.367 36.3906 170.867 35.8516 171.289 35.2734C171.836 34.5391 172.094 33.8047 172.062 33.0703C171.938 32.7578 171.703 32.4609 171.359 32.1797H171.383L170.375 31.7109C169.891 31.5859 169.352 31.6016 168.758 31.7578L168.641 31.7812C168.75 31.5469 168.945 31.1016 169.227 30.4453C169.32 30.2266 169.414 29.9844 169.508 29.7188C169.617 29.3125 169.547 29.0078 169.297 28.8047C169.047 28.5859 168.75 28.5 168.406 28.5469C168.078 28.5938 167.844 28.8047 167.703 29.1797C167.578 29.6172 167.312 30.3672 166.906 31.4297C166.297 32.8359 165.836 34.1406 165.523 35.3438C165.102 36.9688 165.18 38.1094 165.758 38.7656C166.055 38.9219 166.422 38.9141 166.859 38.7422C167.25 38.5859 167.641 38.3906 168.031 38.1562C168.703 37.8906 169.086 37.7422 169.18 37.7109C169.211 37.7109 169.234 37.7031 169.25 37.6875C170.406 37.3438 171.516 36.9062 172.578 36.375C173.812 35.7344 175.016 35.0469 176.188 34.3125C176.281 34.2656 176.539 34.1094 176.961 33.8438C177.383 33.5625 177.859 33.2344 178.391 32.8594C178.906 32.4688 179.383 32.0938 179.82 31.7344C180.258 31.375 180.539 31.0859 180.664 30.8672C180.773 30.6641 180.633 30.5859 180.242 30.6328C178.961 31.9141 177.547 33.0312 176 33.9844C174.438 34.9375 172.82 35.7578 171.148 36.4453C170.961 36.4922 170.742 36.5625 170.492 36.6562C170.258 36.75 170.023 36.8281 169.789 36.8906ZM180.875 39.3984C180.953 39.0234 181.148 38.7578 181.461 38.6016C181.789 38.4453 182.094 38.4297 182.375 38.5547C182.656 38.6641 182.789 38.9453 182.773 39.3984C182.695 39.7734 182.492 40.0391 182.164 40.1953C181.852 40.3516 181.547 40.3672 181.25 40.2422C180.969 40.1328 180.844 39.8516 180.875 39.3984ZM262.367 4.66406C262.695 4.71094 262.953 4.85937 263.141 5.10938C263.328 5.35938 263.406 5.64844 263.375 5.97656C263.328 6.30469 263.18 6.57031 262.93 6.77344C262.68 6.96094 262.391 7.03125 262.062 6.98438C256.344 6.09375 250.578 5.69531 244.766 5.78906C238.969 5.86719 233.195 6.24219 227.445 6.91406C226.68 7.00781 225.766 7.13281 224.703 7.28906C219.281 19.5859 215.102 32.3047 212.164 45.4453C213.117 48.2109 213.438 51.2422 213.125 54.5391C212.828 57.8359 211.586 61.4609 209.398 65.4141C209.102 65.7578 208.758 65.9219 208.367 65.9062C207.977 65.8906 207.641 65.7422 207.359 65.4609C207.078 65.1797 206.961 64.8125 207.008 64.3594C207.023 64.2969 207.031 64.2109 207.031 64.1016C207.047 64.0078 207.062 63.9062 207.078 63.7969C207.094 63.5625 207.109 63.3906 207.125 63.2812C207.484 59.8906 207.938 56.5078 208.484 53.1328C208.969 50.1328 209.523 47.1406 210.148 44.1562C208.914 41.0156 207.133 37.9375 204.805 34.9219C204.07 33.875 203.297 32.8359 202.484 31.8047C201.203 30.1797 200.008 28.5 198.898 26.7656C197.805 25.0312 196.992 23.1641 196.461 21.1641C196.227 19.8359 196.43 18.5938 197.07 17.4375C197.711 16.2656 198.547 15.2891 199.578 14.5078C202.188 12.6016 205.453 11.0078 209.375 9.72656C213.312 8.44531 217.5 7.42188 221.938 6.65625C222.672 4.92188 223.43 3.20313 224.211 1.5C224.508 0.953125 224.906 0.679688 225.406 0.679688C225.906 0.664062 226.312 0.84375 226.625 1.21875C226.953 1.59375 227.008 2.08594 226.789 2.69531C226.258 3.82031 225.734 4.96094 225.219 6.11719C232.703 5.05469 239.211 4.41406 244.742 4.19531C247.68 4.07031 250.609 4.03125 253.531 4.07812C256.469 4.125 259.414 4.32031 262.367 4.66406ZM209.469 61.2188C211.406 56.9062 212.055 52.8125 211.414 48.9375C210.555 53.1562 209.844 57.3984 209.281 61.6641C209.344 61.5078 209.406 61.3594 209.469 61.2188ZM213.992 28.8984C216.102 21.7266 218.594 14.6953 221.469 7.80469C219.094 8.19531 216.562 8.72656 213.875 9.39844C211.188 10.0547 208.625 10.8594 206.188 11.8125C203.75 12.7656 201.719 13.8984 200.094 15.2109C198.469 16.5078 197.531 17.9922 197.281 19.6641C197.406 21.6172 198.086 23.5859 199.32 25.5703C200.57 27.5391 202.07 29.5938 203.82 31.7344C205.039 33.2656 206.242 34.8672 207.43 36.5391C208.633 38.1953 209.711 39.9531 210.664 41.8125C211.633 37.4688 212.742 33.1641 213.992 28.8984ZM240.266 30.6094C240.344 30.5312 240.422 30.5078 240.5 30.5391C240.578 30.5703 240.625 30.625 240.641 30.7031C240.672 30.7812 240.648 30.8516 240.57 30.9141C239.148 31.9922 237.648 32.9297 236.07 33.7266C234.492 34.5234 232.891 35.2344 231.266 35.8594C230.906 35.9844 230.531 36.125 230.141 36.2812C230.125 36.2812 230.117 36.2812 230.117 36.2812C230.43 36.75 230.633 37.25 230.727 37.7812C230.711 38.9688 230.398 40.1094 229.789 41.2031C229.195 42.2969 228.484 43.2891 227.656 44.1797C227.641 44.1953 227.617 44.2188 227.586 44.25C227.32 44.5156 226.961 44.8438 226.508 45.2344C226.039 45.625 225.578 45.9297 225.125 46.1484C224.656 46.3672 224.289 46.3359 224.023 46.0547C223.492 44.9609 223.5 43.1406 224.047 40.5938C224.594 38.0469 225.43 35.2422 226.555 32.1797C227.664 29.1172 228.797 26.2656 229.953 23.625C231.125 20.9844 232.047 19.0234 232.719 17.7422C232.859 17.5078 232.992 17.2734 233.117 17.0391C233.445 16.4141 233.805 15.8125 234.195 15.2344C234.586 14.6406 235.07 14.125 235.648 13.6875C235.945 13.4688 236.234 13.4375 236.516 13.5938C236.797 13.75 236.922 14 236.891 14.3438C236.547 16.0625 236.102 17.7422 235.555 19.3828C234.43 22.4922 232.938 25.4375 231.078 28.2188C231.062 28.25 231.023 28.3047 230.961 28.3828C230.789 28.6328 230.508 29.0391 230.117 29.6016C229.742 30.1484 229.344 30.6875 228.922 31.2188C228.406 32.5781 227.906 33.9453 227.422 35.3203C227.469 35.3047 227.516 35.2891 227.562 35.2734C228.156 35.1016 228.688 35.1484 229.156 35.4141C230.922 35.3359 232.938 34.7734 235.203 33.7266C237.469 32.6641 239.156 31.625 240.266 30.6094ZM235.391 16.8281C234.641 18.0781 233.977 19.375 233.398 20.7188C233.148 21.25 232.891 21.7812 232.625 22.3125C231.547 24.7188 230.531 27.1406 229.578 29.5781C232 26.4062 233.766 22.9531 234.875 19.2188C234.906 19.0938 234.938 18.9609 234.969 18.8203C235.172 18.1641 235.312 17.5 235.391 16.8281ZM228.102 37.0078L228.078 36.9844C227.953 37.0156 227.82 37.0469 227.68 37.0781C227.336 37.0469 227.102 36.8984 226.977 36.6328C226.82 37.0859 226.672 37.5469 226.531 38.0156C226.344 38.6406 226.148 39.2656 225.945 39.8906C225.648 40.7656 225.391 41.6406 225.172 42.5156C224.953 43.4062 224.836 44.2969 224.82 45.1875C225.836 44.5 226.695 43.6484 227.398 42.6328C228.102 41.6172 228.617 40.5391 228.945 39.3984C229.055 39.0078 229.102 38.625 229.086 38.25C229.039 38 228.914 37.7422 228.711 37.4766C228.523 37.2109 228.32 37.0547 228.102 37.0078ZM273.664 30.5391C273.742 30.6016 273.789 30.6797 273.805 30.7734C273.82 30.8672 273.797 30.9531 273.734 31.0312C273.422 31.4531 273.086 31.8359 272.727 32.1797C270.93 33.9609 269 35.5703 266.938 37.0078C266.766 37.1172 266.602 37.2266 266.445 37.3359C265.773 37.7891 265.07 38.2031 264.336 38.5781C263.602 38.9531 262.828 39.1719 262.016 39.2344C261.172 39.1719 260.578 38.8125 260.234 38.1562C259.891 37.5 259.75 36.7969 259.812 36.0469C259.844 35.2188 259.961 34.4062 260.164 33.6094C259.758 34.0781 259.352 34.5156 258.945 34.9219C258.414 35.5312 257.781 36.0391 257.047 36.4453C256.109 36.7891 255.43 36.6953 255.008 36.1641C254.586 35.6172 254.453 34.8984 254.609 34.0078C254.656 33.7109 254.734 33.3359 254.844 32.8828C254.984 32.3672 255.094 31.8672 255.172 31.3828C255.266 30.8828 255.25 30.5156 255.125 30.2812C254.266 29.5156 252.992 29.1172 251.305 29.0859C249.633 29.0547 247.984 29.1328 246.359 29.3203C245.75 29.3828 245.195 29.4297 244.695 29.4609C245.195 30.2266 245.398 31.1719 245.305 32.2969C245.227 33.4062 245.023 34.3438 244.695 35.1094C244.383 35.9062 243.914 36.6016 243.289 37.1953C242.664 37.7891 241.922 38.1797 241.062 38.3672C240.188 38.3672 239.562 38.0625 239.188 37.4531C238.797 36.8438 238.594 36.1328 238.578 35.3203C238.562 34.4922 238.656 33.7578 238.859 33.1172C239.125 32.1328 239.57 31.2344 240.195 30.4219C240.82 29.5938 241.594 28.9531 242.516 28.5C243 28.3281 243.367 28.3984 243.617 28.7109C244.023 28.6953 244.539 28.6719 245.164 28.6406C245.789 28.6094 246.367 28.5781 246.898 28.5469C247.195 28.5312 247.43 28.5156 247.602 28.5C247.977 28.4844 248.406 28.4688 248.891 28.4531C249.766 28.375 250.695 28.3438 251.68 28.3594C252.68 28.375 253.594 28.5156 254.422 28.7812C255.266 29.0312 255.891 29.5 256.297 30.1875C256.328 30.25 256.359 30.3203 256.391 30.3984C256.438 30.4766 256.469 30.5547 256.484 30.6328C256.516 30.6953 256.531 30.7266 256.531 30.7266C256.672 31.4766 256.648 32.2266 256.461 32.9766C256.414 33.1484 256.383 33.3203 256.367 33.4922C256.32 33.7266 256.258 33.9531 256.18 34.1719C256.039 34.6094 255.969 35.0312 255.969 35.4375C255.969 35.4531 255.984 35.4766 256.016 35.5078C256.062 35.5391 256.109 35.5625 256.156 35.5781C256.203 35.5781 256.25 35.5781 256.297 35.5781C256.984 35.3125 257.672 34.7344 258.359 33.8438C259.062 32.9375 259.703 32.0156 260.281 31.0781C260.625 30.5312 260.93 30.0781 261.195 29.7188L261.477 29.4141C261.695 29.2734 261.93 29.2344 262.18 29.2969C262.445 29.3438 262.648 29.4688 262.789 29.6719C262.914 29.8438 262.969 30.0234 262.953 30.2109C262.938 30.3984 262.867 30.5703 262.742 30.7266C262.68 30.8047 262.625 30.875 262.578 30.9375C262.578 30.9375 262.57 30.9453 262.555 30.9609C262.555 30.9766 262.547 30.9922 262.531 31.0078C262.531 31.0078 262.523 31.0156 262.508 31.0312C262.508 31.0469 262.5 31.0547 262.484 31.0547C262.281 31.3516 262.094 31.6484 261.922 31.9453C261.688 32.3828 261.492 32.8281 261.336 33.2812C260.992 34.2031 260.781 35.1484 260.703 36.1172C260.625 37.0703 260.82 37.7734 261.289 38.2266C261.773 38.6641 262.688 38.5781 264.031 37.9688C265.578 37.1875 267.031 36.2656 268.391 35.2031C269.766 34.125 271.055 32.9688 272.258 31.7344C272.602 31.375 272.906 31.0078 273.172 30.6328C273.234 30.5547 273.312 30.5078 273.406 30.4922C273.5 30.4609 273.586 30.4766 273.664 30.5391ZM243.547 28.7109C243.547 28.6953 243.547 28.6797 243.547 28.6641C243.547 28.6484 243.547 28.6484 243.547 28.6641C243.547 28.6641 243.547 28.6719 243.547 28.6875C243.547 28.6875 243.547 28.6953 243.547 28.7109ZM240.945 37.2891C242.117 37.0234 242.984 36.3594 243.547 35.2969C244.125 34.2188 244.43 33.1016 244.461 31.9453C244.461 31.5547 244.422 31.1484 244.344 30.7266C244.266 30.3047 244.086 29.9688 243.805 29.7188C243.727 29.9062 243.57 30.0625 243.336 30.1875C242.477 30.625 241.781 31.2578 241.25 32.0859C240.719 32.8984 240.383 33.7891 240.242 34.7578C240.195 35.0078 240.172 35.3203 240.172 35.6953C240.172 36.0703 240.227 36.4141 240.336 36.7266C240.445 37.0391 240.648 37.2266 240.945 37.2891ZM242.234 31.6172C242.234 31.6328 242.227 31.6406 242.211 31.6406C242.227 31.6406 242.234 31.6328 242.234 31.6172ZM242.188 20.3438L242.211 20.2969C242.211 20.3125 242.203 20.3203 242.188 20.3203V20.3438ZM260.844 27.9375C261.188 27.6562 261.523 27.3672 261.852 27.0703C262.086 26.7734 262.086 26.5 261.852 26.25C261.617 26.0625 261.391 26.0391 261.172 26.1797C260.922 26.4453 260.68 26.6797 260.445 26.8828C259.977 27.2891 259.562 27.4141 259.203 27.2578C259.047 26.8828 258.992 26.4766 259.039 26.0391C259.008 25.6641 258.734 25.5156 258.219 25.5938C257.719 25.75 257.5 26 257.562 26.3438C257.562 26.4062 257.57 26.4766 257.586 26.5547C257.727 27.3516 258.07 27.9219 258.617 28.2656C259.164 28.6094 259.906 28.5 260.844 27.9375ZM345.898 4.66406C346.227 4.71094 346.484 4.85937 346.672 5.10938C346.859 5.35938 346.938 5.64844 346.906 5.97656C346.859 6.30469 346.711 6.57031 346.461 6.77344C346.211 6.96094 345.922 7.03125 345.594 6.98438C339.875 6.09375 334.109 5.69531 328.297 5.78906C322.5 5.86719 316.727 6.24219 310.977 6.91406C310.211 7.00781 309.297 7.13281 308.234 7.28906C302.812 19.5859 298.633 32.3047 295.695 45.4453C296.648 48.2109 296.969 51.2422 296.656 54.5391C296.359 57.8359 295.117 61.4609 292.93 65.4141C292.633 65.7578 292.289 65.9219 291.898 65.9062C291.508 65.8906 291.172 65.7422 290.891 65.4609C290.609 65.1797 290.492 64.8125 290.539 64.3594C290.555 64.2969 290.562 64.2109 290.562 64.1016C290.578 64.0078 290.594 63.9062 290.609 63.7969C290.625 63.5625 290.641 63.3906 290.656 63.2812C291.016 59.8906 291.469 56.5078 292.016 53.1328C292.5 50.1328 293.055 47.1406 293.68 44.1562C292.445 41.0156 290.664 37.9375 288.336 34.9219C287.602 33.875 286.828 32.8359 286.016 31.8047C284.734 30.1797 283.539 28.5 282.43 26.7656C281.336 25.0312 280.523 23.1641 279.992 21.1641C279.758 19.8359 279.961 18.5938 280.602 17.4375C281.242 16.2656 282.078 15.2891 283.109 14.5078C285.719 12.6016 288.984 11.0078 292.906 9.72656C296.844 8.44531 301.031 7.42188 305.469 6.65625C306.203 4.92188 306.961 3.20313 307.742 1.5C308.039 0.953125 308.438 0.679688 308.938 0.679688C309.438 0.664062 309.844 0.84375 310.156 1.21875C310.484 1.59375 310.539 2.08594 310.32 2.69531C309.789 3.82031 309.266 4.96094 308.75 6.11719C316.234 5.05469 322.742 4.41406 328.273 4.19531C331.211 4.07031 334.141 4.03125 337.062 4.07812C340 4.125 342.945 4.32031 345.898 4.66406ZM293 61.2188C294.938 56.9062 295.586 52.8125 294.945 48.9375C294.086 53.1562 293.375 57.3984 292.812 61.6641C292.875 61.5078 292.938 61.3594 293 61.2188ZM297.523 28.8984C299.633 21.7266 302.125 14.6953 305 7.80469C302.625 8.19531 300.094 8.72656 297.406 9.39844C294.719 10.0547 292.156 10.8594 289.719 11.8125C287.281 12.7656 285.25 13.8984 283.625 15.2109C282 16.5078 281.062 17.9922 280.812 19.6641C280.938 21.6172 281.617 23.5859 282.852 25.5703C284.102 27.5391 285.602 29.5938 287.352 31.7344C288.57 33.2656 289.773 34.8672 290.961 36.5391C292.164 38.1953 293.242 39.9531 294.195 41.8125C295.164 37.4688 296.273 33.1641 297.523 28.8984ZM326.961 30.6797C327.023 30.5703 327.109 30.5234 327.219 30.5391C327.328 30.5547 327.414 30.6094 327.477 30.7031C327.539 30.7812 327.539 30.875 327.477 30.9844C327.023 31.625 326.5 32.1953 325.906 32.6953C325.312 33.1797 324.695 33.6406 324.055 34.0781C323.945 34.1562 323.844 34.2266 323.75 34.2891C322.203 35.3516 320.711 36.1719 319.273 36.75C317.836 37.3125 316.586 37.4219 315.523 37.0781C314.477 36.7188 313.742 35.6719 313.32 33.9375C312.289 35.4688 311.18 36.9453 309.992 38.3672C309.367 38.9922 308.727 39.1719 308.07 38.9062C307.398 38.625 307.133 38.0312 307.273 37.125C307.914 34.2812 309.25 31.8125 311.281 29.7188C311.938 29.0469 312.742 28.5078 313.695 28.1016C314.07 27.9609 314.375 28.0078 314.609 28.2422C314.859 28.4766 314.977 28.7656 314.961 29.1094C314.945 29.4375 314.75 29.6797 314.375 29.8359C313.203 30.4297 312.219 31.2734 311.422 32.3672C310.641 33.4453 310.031 34.6172 309.594 35.8828C310.875 34.2266 312.07 32.5078 313.18 30.7266C313.352 30.4609 313.578 30.3203 313.859 30.3047C314.156 30.2891 314.406 30.375 314.609 30.5625C314.828 30.75 314.93 31 314.914 31.3125C314.602 32.2656 314.516 33.25 314.656 34.2656C314.812 35.2656 315.406 35.9688 316.438 36.375C317.984 36.3594 319.547 35.9219 321.125 35.0625C322.703 34.2031 324.109 33.2969 325.344 32.3438C325.984 31.875 326.523 31.3203 326.961 30.6797ZM343.203 30.7266C343.25 30.9141 343.141 31.0625 342.875 31.1719C342.625 31.2812 342.352 31.3672 342.055 31.4297C341.82 31.4922 341.648 31.5469 341.539 31.5938C339.977 32 338.391 32.2109 336.781 32.2266C336.703 32.2266 336.625 32.2266 336.547 32.2266C335.938 32.2109 335.219 32.1719 334.391 32.1094C333.562 32.0469 332.773 31.8984 332.023 31.6641C332.055 32.8516 331.844 34.0078 331.391 35.1328C330.953 36.2578 330.336 37.1094 329.539 37.6875C328.602 38.3594 327.742 38.5469 326.961 38.25C326.18 37.9531 325.68 37.2422 325.461 36.1172C325.227 34.0547 325.734 32.1719 326.984 30.4688C327.625 29.6406 328.414 28.9922 329.352 28.5234C329.789 28.3516 330.141 28.4141 330.406 28.7109C330.547 28.5703 330.727 28.5547 330.945 28.6641C331.477 29.2734 331.812 30.0312 331.953 30.9375C332.734 31.25 333.609 31.4531 334.578 31.5469C335.547 31.625 336.281 31.6641 336.781 31.6641C338.891 31.6797 340.922 31.3203 342.875 30.5859C342.938 30.5547 343 30.5547 343.062 30.5859C343.125 30.6172 343.172 30.6641 343.203 30.7266ZM330.992 30.3047C330.945 30.0703 330.875 29.8438 330.781 29.625C330.781 29.875 330.852 30.1016 330.992 30.3047ZM327.781 37.3125C328.984 37.0312 329.875 36.2891 330.453 35.0859C331.047 33.8828 331.289 32.6172 331.18 31.2891C330.695 31.0234 330.359 30.6641 330.172 30.2109C329.297 30.6641 328.594 31.3047 328.062 32.1328C327.547 32.9453 327.211 33.8281 327.055 34.7812C327.055 34.8438 327.047 34.9062 327.031 34.9688C326.984 35.4219 326.984 35.8906 327.031 36.375C327.094 36.8594 327.344 37.1719 327.781 37.3125ZM343.484 39.3984C343.562 39.0234 343.758 38.7578 344.07 38.6016C344.398 38.4453 344.703 38.4297 344.984 38.5547C345.266 38.6641 345.398 38.9453 345.383 39.3984C345.305 39.7734 345.102 40.0391 344.773 40.1953C344.461 40.3516 344.156 40.3672 343.859 40.2422C343.578 40.1328 343.453 39.8516 343.484 39.3984Z" fill="#B48956"/>
</svg>
