<svg width="30" height="31" viewBox="0 0 30 31" fill="none" xmlns="http://www.w3.org/2000/svg">
<path d="M30 15.4697C30 7.18573 23.284 0.469727 15 0.469727C6.716 0.469727 0 7.18573 0 15.4697C0 23.7537 6.716 30.4697 15 30.4697C23.284 30.4697 30 23.7537 30 15.4697ZM22.609 17.0917C23.3075 17.7742 24.0475 18.4167 24.676 19.1707C24.954 19.5037 25.216 19.8477 25.4155 20.2362C25.7005 20.7887 25.4435 21.3952 24.9485 21.4282L21.8755 21.4277C21.082 21.4932 20.4495 21.1732 19.918 20.6307C19.4925 20.1982 19.098 19.7362 18.689 19.2887C18.5215 19.1052 18.345 18.9317 18.1365 18.7967C17.7175 18.5242 17.3535 18.6072 17.113 19.0447C16.869 19.4907 16.812 19.9842 16.79 20.4792C16.7565 21.2037 16.538 21.3932 15.811 21.4272C14.2575 21.5002 12.783 21.2647 11.413 20.4807C10.2045 19.7902 9.269 18.8147 8.454 17.7112C6.8665 15.5592 5.651 13.1977 4.5585 10.7677C4.313 10.2197 4.4925 9.92723 5.0965 9.91623C6.0995 9.89673 7.1025 9.89923 8.1055 9.91523C8.5135 9.92173 8.7835 10.1552 8.9405 10.5402C9.4825 11.8737 10.147 13.1427 10.9795 14.3197C11.2015 14.6327 11.4275 14.9452 11.7505 15.1662C12.1065 15.4102 12.378 15.3297 12.546 14.9327C12.6535 14.6797 12.6995 14.4097 12.723 14.1387C12.803 13.2117 12.8125 12.2852 12.674 11.3612C12.588 10.7832 12.2635 10.4102 11.687 10.3007C11.3935 10.2457 11.4365 10.1367 11.579 9.96923C11.8265 9.67973 12.059 9.50023 12.5225 9.50023L15.994 9.49973C16.542 9.60723 16.6645 9.85223 16.738 10.4037L16.742 14.2622C16.7345 14.4757 16.8485 15.1077 17.2315 15.2477C17.5385 15.3487 17.7415 15.1027 17.925 14.9082C18.758 14.0242 19.3515 12.9817 19.882 11.9022C20.1165 11.4267 20.3185 10.9332 20.516 10.4402C20.6615 10.0752 20.889 9.89573 21.3 9.90223L24.644 9.90623C24.742 9.90623 24.842 9.90723 24.94 9.92373C25.5035 10.0202 25.6585 10.2627 25.4835 10.8122C25.209 11.6757 24.677 12.3952 24.1555 13.1162C23.597 13.8882 23.0005 14.6332 22.4485 15.4087C21.9375 16.1192 21.9775 16.4767 22.609 17.0917Z" fill="#B48956"/>
</svg>
