<svg width="30" height="30" viewBox="0 0 30 30" fill="none" xmlns="http://www.w3.org/2000/svg">
<path d="M15.4877 6.62585C11.1247 6.62585 7.5772 10.0887 7.5752 14.3453C7.5747 15.8035 7.9927 17.2242 8.7847 18.4535L8.9727 18.7459L8.1737 21.5946L11.1667 20.8281L11.4552 20.996C12.6697 21.6985 14.0617 22.071 15.4807 22.0715H15.4842C19.8437 22.0715 23.3912 18.6087 23.3932 14.3516C23.3937 12.289 22.5717 10.3494 21.0787 8.89013C19.5857 7.4309 17.5997 6.62634 15.4877 6.62585ZM20.1392 17.6641C19.9412 18.2064 18.9912 18.7015 18.5347 18.7679C18.1247 18.8274 17.6067 18.8528 17.0367 18.6761C16.6917 18.5692 16.2487 18.4261 15.6812 18.1874C13.2962 17.1817 11.7387 14.8379 11.6197 14.6831C11.5012 14.5283 10.6492 13.4245 10.6492 12.2826C10.6492 11.1407 11.2637 10.5788 11.4812 10.3464C11.6992 10.114 11.9567 10.0559 12.1152 10.0559C12.2737 10.0559 12.4327 10.0574 12.5712 10.0642C12.7172 10.0716 12.9132 10.0101 13.1057 10.4626C13.3037 10.9274 13.7797 12.0698 13.8392 12.1855C13.8982 12.3017 13.9382 12.4374 13.8587 12.5921C13.7797 12.7469 13.7402 12.8441 13.6207 12.9793C13.5022 13.115 13.3712 13.282 13.2642 13.386C13.1452 13.5017 13.0212 13.6271 13.1597 13.8595C13.2982 14.0919 13.7757 14.852 14.4827 15.4672C15.3907 16.2576 16.1572 16.5026 16.3947 16.6188C16.6327 16.7345 16.7712 16.715 16.9097 16.5607C17.0482 16.406 17.5037 15.8826 17.6627 15.6512C17.8212 15.4183 17.9797 15.4574 18.1972 15.535C18.4157 15.6122 19.5842 16.1741 19.8222 16.2903C20.0602 16.406 20.2182 16.4641 20.2777 16.5612C20.3372 16.6584 20.3377 17.1222 20.1392 17.6641Z" fill="#B48956"/>
<path d="M15 0C6.716 0 0 6.5575 0 14.646C0 22.7345 6.716 29.292 15 29.292C23.284 29.292 30 22.7345 30 14.646C30 6.5575 23.284 0 15 0ZM15.4845 23.6396H15.4805C13.888 23.6396 12.3235 23.2495 10.933 22.5099L5.8885 23.8012L7.2385 18.989C6.406 17.5796 5.9675 15.9827 5.9685 14.3453C5.9705 9.22405 10.239 5.05775 15.484 5.05775C18.0295 5.05873 20.4185 6.02585 22.215 7.78191C24.012 9.53747 25.0005 11.8711 24.9995 14.3531C24.998 19.4733 20.7285 23.6396 15.4845 23.6396Z" fill="#B48956"/>
</svg>
