<svg width="86" height="71" viewBox="0 0 86 71" fill="none" xmlns="http://www.w3.org/2000/svg">
<path d="M76.2637 44.3859C70.9624 50.352 64.0191 54.9068 57.3044 59.3121C51.9444 62.828 46.8412 66.1763 42.9997 70C39.1588 66.1763 34.0556 62.8286 28.695 59.3121C21.9809 54.9068 15.0382 50.352 9.73625 44.3859C3.85772 37.771 1 30.366 1 21.7487C1 10.3087 10.1526 1.00175 21.402 1.00175C30.2813 1.00175 38.082 6.77053 40.8139 15.3568C41.1206 16.3204 42.0033 16.9738 42.9997 16.9738C43.9961 16.9738 44.8782 16.3209 45.1861 15.3563C47.9163 6.76937 55.7176 1 64.598 1C75.8479 1 85 10.3075 85 21.7487C84.9994 30.366 82.1417 37.771 76.2637 44.3859Z" stroke="#B48956" stroke-miterlimit="10"/>
</svg>
