<svg width="60" height="100" viewBox="0 0 60 100" fill="none" xmlns="http://www.w3.org/2000/svg">
<path d="M30.1699 12.1447C46.2789 12.1447 59.3378 9.64987 59.3378 6.57235C59.3378 3.49482 46.2789 1 30.1699 1C14.0609 1 1.00195 3.49482 1.00195 6.57235C1.00195 9.64987 14.0609 12.1447 30.1699 12.1447Z" stroke="#B48956" stroke-miterlimit="10"/>
<path d="M30.1685 55.8039C46.2778 55.8039 59.337 48.0268 59.337 38.4332C59.337 28.8396 46.2778 21.0625 30.1685 21.0625C14.0592 21.0625 1 28.8396 1 38.4332C1 48.0268 14.0592 55.8039 30.1685 55.8039Z" stroke="#B48956" stroke-miterlimit="10"/>
<path d="M30.1699 99.4589C46.2789 99.4589 59.3378 86.4 59.3378 70.291C59.3378 54.182 46.2789 41.123 30.1699 41.123C14.0609 41.123 1.00195 54.182 1.00195 70.291C1.00195 86.4 14.0609 99.4589 30.1699 99.4589Z" stroke="#B48956" stroke-miterlimit="10"/>
</svg>
