<svg width="97" height="96" viewBox="0 0 97 96" fill="none" xmlns="http://www.w3.org/2000/svg">
<path d="M58.8857 93.5093C62.9123 84.2339 66.2064 74.0792 66.2064 70.9438C66.2069 67.8084 68.7365 65.2426 71.8283 65.2426C74.9206 65.242 85.1199 61.9826 94.4935 57.9985C94.4935 57.9985 96 57.3588 96 47.7213C96 38.0855 94.4935 37.4453 94.4935 37.4453C85.1193 33.4611 74.9205 30.2017 71.8288 30.2012C68.7365 30.2012 66.2069 27.7605 66.2064 24.7781C66.2064 21.7957 62.9123 11.7655 58.8857 2.49065C58.8857 2.49065 58.2392 1 48.5003 1C38.7608 1 38.1137 2.49065 38.1137 2.49065C34.0872 11.7661 30.7931 21.7957 30.7931 24.7781C30.7925 27.7605 28.2635 30.2012 25.1712 30.2012C22.0789 30.2017 11.8795 33.4611 2.50596 37.4453C2.50596 37.4453 0.999438 38.0849 1 47.7219C0.999438 57.3583 2.50596 57.9985 2.50596 57.9985C11.8801 61.9826 22.0789 65.242 25.1712 65.2426C28.2629 65.2426 30.7925 67.8084 30.7931 70.9438C30.7931 74.0797 34.0872 84.2345 38.1137 93.5093C38.1137 93.5093 38.7602 95 48.4992 95C58.2387 95 58.8857 93.5093 58.8857 93.5093Z" stroke="#B48956" stroke-miterlimit="10"/>
</svg>
