<svg width="117" height="43" viewBox="0 0 117 43" fill="none" xmlns="http://www.w3.org/2000/svg">
<path d="M105.943 41.7567C111.547 41.7567 116.091 37.2134 116.091 31.6088C116.091 26.0043 111.547 21.4609 105.943 21.4609C100.338 21.4609 95.7949 26.0043 95.7949 31.6088C95.7949 37.2134 100.338 41.7567 105.943 41.7567Z" stroke="#B48956" stroke-miterlimit="10"/>
<path d="M100.945 22.8633C100.945 15.2739 94.7938 9.12109 87.2025 9.12109C79.6138 9.12109 73.4609 15.2733 73.4609 22.8633C73.4609 30.4533 79.6138 36.6062 87.2025 36.6062C94.7945 36.6062 100.945 30.4533 100.945 22.8633Z" stroke="#B48956" stroke-miterlimit="10"/>
<path d="M11.1486 41.7561C16.7535 41.7561 21.2971 37.2124 21.2971 31.6075C21.2971 26.0027 16.7535 21.459 11.1486 21.459C5.54367 21.459 1 26.0027 1 31.6075C1 37.2124 5.54367 41.7561 11.1486 41.7561Z" stroke="#B48956" stroke-miterlimit="10"/>
<path d="M29.8887 36.6055C37.4783 36.6055 43.6309 30.4529 43.6309 22.8633C43.6309 15.2737 37.4783 9.12109 29.8887 9.12109C22.2991 9.12109 16.1465 15.2737 16.1465 22.8633C16.1465 30.4529 22.2991 36.6055 29.8887 36.6055Z" stroke="#B48956" stroke-miterlimit="10"/>
<path d="M58.4683 37.2296C68.4729 37.2296 76.5831 29.1193 76.5831 19.1148C76.5831 9.11027 68.4729 1 58.4683 1C48.4638 1 40.3535 9.11027 40.3535 19.1148C40.3535 29.1193 48.4638 37.2296 58.4683 37.2296Z" stroke="#B48956" stroke-miterlimit="10"/>
</svg>
