<svg width="86" height="103" viewBox="0 0 86 103" fill="none" xmlns="http://www.w3.org/2000/svg">
<path d="M43 1.00003C22.1891 0.972467 5.132 19.3773 1.29241 43.077C1.14375 44.3108 1.05477 45.529 1.02114 46.7267C0.656546 56.9932 5.03271 65.6346 12.2947 71.1614C15.0351 73.2843 18.1487 74.9943 21.5066 76.3195C25.2235 78.4992 28.4028 80.6129 30.4862 82.6667C34.7571 86.578 35.0572 90.1785 34.5862 93.1592C34.124 96.1414 32.9233 98.5708 34.2661 100.023C35.3887 101.497 38.9412 101.991 43.0016 102C47.0621 101.99 50.6157 101.497 51.735 100.023C53.0751 98.5708 51.8674 96.1387 51.404 93.1586C50.9347 90.1774 51.2413 86.578 55.5154 82.6667C57.6026 80.6135 60.7868 78.4938 64.507 76.3147C67.8535 74.9916 70.959 73.2859 73.6918 71.1706C80.9597 65.6449 85.3435 57.003 84.9789 46.7337C84.9458 45.5317 84.8574 44.313 84.7082 43.0764C80.8664 19.3773 63.8104 0.973008 43 1.00003Z" stroke="#B48956" stroke-miterlimit="10"/>
</svg>
