<svg width="116" height="50" viewBox="0 0 116 50" fill="none" xmlns="http://www.w3.org/2000/svg">
<path d="M0 0.0156078H28.7345V1.71789H16.7075V30.5738H12.0277V1.71789H0V0.0156078Z" fill="black"/>
<path d="M59.5718 21.4501H43.7532L39.4011 30.5738H37.0142L51.4283 0.0158434H54.0028L69.3057 30.5738H64.0173L59.5718 21.4501ZM44.5962 19.7471H58.7765L51.6624 5.03568L44.5962 19.7471Z" fill="black"/>
<path d="M98.614 0C108.207 0 115.228 6.63534 115.228 15.5843C115.228 24.5337 108.207 31.2126 98.614 31.2126C89.0205 31.2126 82 24.5337 82 15.5843C82 6.63534 89.0205 0 98.614 0ZM98.614 29.641C105.4 29.641 110.407 23.8349 110.407 15.5843C110.407 7.3339 105.4 1.57115 98.614 1.57115C91.8757 1.57115 86.8674 7.3339 86.8674 15.5843C86.8674 23.8349 91.8757 29.641 98.614 29.641Z" fill="black"/>
<path d="M91.956 11.2976H92.9992L92.4612 8.85051H91.4195L91.956 11.2976ZM95.8133 10.3836H94.0114V11.2687H99.26V11.2976C98.8168 11.9371 98.5752 12.2606 98.5323 12.271H94.707V18.7885C94.707 19.0105 94.7595 19.2163 94.8654 19.4092C95.0021 19.6647 95.4347 19.7922 96.1616 19.7922H102.737L103.56 19.7329C103.982 19.6008 104.191 19.286 104.191 18.7885V12.271H99.7657V12.2418C100.209 11.6023 100.45 11.2786 100.493 11.2687H104.888V10.3836H103.085C103.169 9.92101 103.211 9.51918 103.211 9.17376V9.14483H102.201C102.137 9.97018 102.063 10.3836 101.978 10.3836H96.8888C96.8046 10.1719 96.741 9.75998 96.6991 9.14483H95.6872C95.6872 9.51918 95.7285 9.93113 95.8133 10.3836ZM89.9016 12.8321H91.9557V17.6977C91.9557 18.0619 91.8609 18.4941 91.671 18.996C91.1965 19.8751 90.481 20.5336 89.521 20.9716C89.574 21.1442 89.7117 21.3995 89.9324 21.7391C91.0443 21.3257 91.8563 20.6672 92.3682 19.7621H92.4302C92.4302 19.8418 92.4938 19.978 92.6199 20.1755C93.2155 21.217 94.0799 21.7391 95.213 21.7391H105.425V20.9121H99.038L95.435 20.8832C94.9176 20.7904 94.5174 20.6322 94.2329 20.4117C93.4101 19.7676 92.9995 18.8625 92.9995 17.6977V11.9475H89.9022V12.8321H89.9016ZM103.181 13.1559V14.4542H95.7185V13.1559H103.181ZM103.181 15.3391V16.6954H95.7185V15.3391H103.181ZM103.181 17.5801V18.3459C103.181 18.5141 103.159 18.6421 103.116 18.7304C103.116 18.9073 102.726 18.996 101.947 18.996H96.9526C96.3198 18.996 96.0037 18.9671 96.0037 18.9075C95.8136 18.9075 95.7185 18.6916 95.7185 18.2577V17.5803H103.181V17.5801Z" fill="black"/>
<path d="M16.2074 44.6751C15.8932 44.4724 15.5285 44.3217 15.1141 44.2222C15.0485 44.2067 14.9752 44.2002 14.9076 44.187C15.0055 44.161 15.1021 44.1337 15.193 44.1008C15.6424 43.9386 15.9923 43.7002 16.2438 43.3849C16.4944 43.0696 16.6196 42.6913 16.6196 42.2496C16.6196 41.7093 16.4944 41.2658 16.2438 40.9188C15.9923 40.5722 15.6426 40.3135 15.193 40.1418C14.7443 39.9708 14.216 39.8857 13.6077 39.8857H11V49.3432H13.7522C14.4087 49.3432 14.995 49.2419 15.5123 49.0393C16.0285 48.8365 16.4387 48.5303 16.7427 48.1203C17.047 47.7108 17.1996 47.1949 17.1996 46.5734C17.1996 46.1413 17.1126 45.7676 16.9389 45.4517C16.7653 45.137 16.5206 44.8778 16.2074 44.6751ZM12.2318 40.8987H13.6079C14.1192 40.8987 14.5444 41.0226 14.8819 41.2699C15.2203 41.5179 15.3892 41.867 15.3892 42.3176C15.3892 42.6144 15.3113 42.867 15.1577 43.0739C15.0031 43.2813 14.7899 43.4387 14.5202 43.5469C14.2494 43.6548 13.9451 43.7091 13.6079 43.7091H12.2318V40.8987ZM15.686 47.492C15.4972 47.7623 15.2365 47.9695 14.904 48.1135C14.5706 48.2579 14.1866 48.33 13.7522 48.33H12.2318V44.709H13.7524C14.0808 44.709 14.3797 44.7471 14.6505 44.8235C14.9202 44.9004 15.1548 45.0154 15.3527 45.1681C15.5508 45.3218 15.7024 45.5107 15.8096 45.7359C15.9157 45.9611 15.9682 46.2175 15.9682 46.5059C15.968 46.8933 15.8741 47.2218 15.686 47.492Z" fill="black"/>
<path d="M29.9019 39.8857H29.2217V49.3432H29.9019H30.4523H35.0152V48.262H30.4523V44.7496H34.7251V43.6687H30.4523V40.9661H35.0152V39.8857H30.4523H29.9019Z" fill="black"/>
<path d="M46.2402 49.3432H47.6165L48.9025 46.5059H52.9859L54.2786 49.3432H55.6549L50.9476 39.4124L46.2402 49.3432ZM49.3984 45.4249L50.9476 42.0203L52.5006 45.4249H49.3984Z" fill="black"/>
<path d="M72.6164 46.2354C72.6164 46.8844 72.4278 47.4064 72.0516 47.8029C71.6747 48.1997 71.1242 48.3975 70.3999 48.3975C69.6764 48.3975 69.1258 48.1997 68.749 47.8029C68.3721 47.4064 68.1842 46.8844 68.1842 46.2354V39.8857H66.9526V46.2354C66.9526 46.7044 67.0324 47.1365 67.192 47.5326C67.3519 47.9291 67.583 48.2715 67.8873 48.5597C68.1915 48.8479 68.556 49.0733 68.9807 49.2353C69.4061 49.3973 69.8787 49.4785 70.4003 49.4785C70.9225 49.4785 71.3956 49.3973 71.8199 49.2353C72.2453 49.0733 72.6099 48.8479 72.9139 48.5597C73.2181 48.2716 73.4496 47.9291 73.6092 47.5326C73.7688 47.1363 73.8478 46.7044 73.8478 46.2354V39.8857H72.6169V46.2354H72.6164Z" fill="black"/>
<path d="M85.2178 40.9661H87.8245V49.3432H89.0561V40.9661H91.6629V39.8857H85.2178V40.9661Z" fill="black"/>
<path d="M108.624 39.8857L106.002 44.2626L103.395 39.8857H102.019L105.394 45.2764V49.3432H106.625V45.2628L110 39.8857H108.624Z" fill="black"/>
</svg>
