<svg width="249" height="68" viewBox="0 0 249 68" fill="none" xmlns="http://www.w3.org/2000/svg">
<path d="M0 0.665405H62.6011V4.37401H36.3991V67.2396H26.2036V4.37401H0V0.665405Z" fill="#B48956"/>
<path d="M129.783 47.3627H95.321L85.8394 67.2396H80.6392L112.042 0.665894H117.651L150.99 67.2396H139.468L129.783 47.3627ZM97.1574 43.6525H128.051L112.552 11.6021L97.1574 43.6525Z" fill="#B48956"/>
<path d="M212.355 0C233.256 0 248.551 14.4558 248.551 33.9519C248.551 53.4492 233.256 68 212.355 68C191.455 68 176.16 53.4492 176.16 33.9519C176.16 14.4558 191.455 0 212.355 0ZM212.355 64.576C227.14 64.576 238.048 51.9268 238.048 33.9519C238.048 15.9777 227.14 3.42292 212.355 3.42292C197.675 3.42292 186.764 15.9777 186.764 33.9519C186.764 51.9268 197.675 64.576 212.355 64.576Z" fill="#B48956"/>
<path d="M200.336 25.2442H202.608L201.436 19.9129H199.167L200.336 25.2442ZM208.739 23.2529H204.814V25.1812H216.248V25.2442C215.283 26.6374 214.756 27.3422 214.663 27.3648H206.329V41.5638C206.329 42.0474 206.443 42.4959 206.674 42.916C206.972 43.4727 207.914 43.7505 209.498 43.7505H223.824L225.615 43.6213C226.535 43.3335 226.991 42.6477 226.991 41.5638V27.3648H217.35V27.3012C218.315 25.908 218.842 25.2027 218.935 25.1812H228.509V23.2529H224.582C224.765 22.2451 224.856 21.3697 224.856 20.6171V20.5541H222.655C222.515 22.3522 222.355 23.2529 222.17 23.2529H211.082C210.899 22.7918 210.76 21.8943 210.669 20.5541H208.464C208.464 21.3697 208.555 22.2671 208.739 23.2529ZM195.86 28.5873H200.335V39.1875C200.335 39.981 200.128 40.9226 199.715 42.0159C198.681 43.9311 197.122 45.3658 195.031 46.32C195.146 46.696 195.446 47.2522 195.927 47.9921C198.35 47.0915 200.118 45.6568 201.234 43.6848H201.369C201.369 43.8587 201.507 44.1554 201.782 44.5855C203.08 46.8546 204.963 47.9921 207.431 47.9921H229.679V46.1903H215.765L207.915 46.1273C206.788 45.9251 205.916 45.5806 205.296 45.1001C203.504 43.6969 202.609 41.725 202.609 39.1875V26.66H195.861V28.5873H195.86ZM224.79 29.2926V32.1211H208.533V29.2926H224.79ZM224.79 34.0489V37.0039H208.533V34.0489H224.79ZM224.79 38.9312V40.5996C224.79 40.9661 224.743 41.245 224.65 41.4372C224.65 41.8227 223.8 42.0159 222.103 42.0159H211.221C209.843 42.0159 209.154 41.9529 209.154 41.8232C208.74 41.8232 208.533 41.3526 208.533 40.4074V38.9317H224.79V38.9312Z" fill="#B48956"/>
</svg>
