<svg width="89" height="103" viewBox="0 0 89 103" fill="none" xmlns="http://www.w3.org/2000/svg">
<path d="M64.4872 0.663574H15.4472C12.2143 0.663574 9.59375 3.28414 9.59375 6.51703V96.6882C9.59375 99.9211 12.2143 102.542 15.4472 102.542H82.5216C85.7545 102.542 88.3751 99.9211 88.3751 96.6882V24.5507L64.4872 0.663574Z" fill="white"/>
<path d="M66.97 27.3402C68.1282 27.3492 69.3424 27.16 70.5394 26.9963C73.4717 26.594 76.4033 26.1918 79.3357 25.7903C82.348 25.3768 85.3603 24.9783 88.3727 24.5656L64.4848 0.663574C63.8471 4.84451 63.2101 9.0247 62.573 13.2049C62.2859 15.089 61.9988 16.9724 61.7117 18.8557C61.3843 21.0015 60.9207 23.0763 62.2343 24.997C63.4859 26.8281 65.1592 27.326 66.97 27.3402Z" fill="#D7DBDD"/>
<path d="M69.5181 24.5507H88.3742L64.4863 0.663574V19.5196C64.4863 22.2987 66.739 24.5507 69.5181 24.5507Z" fill="white"/>
<g opacity="0.08">
<path d="M56.0931 67.2667H4.48408L0.929688 63.6809V41.1426H56.0931C57.9084 41.1426 59.3798 42.614 59.3798 44.4293V63.98C59.379 65.7953 57.9084 67.2667 56.0931 67.2667Z" fill="black"/>
</g>
<path d="M52.5387 63.681H0.929688V37.5576H52.5387C54.354 37.5576 55.8254 39.029 55.8254 40.8443V60.395C55.8254 62.2096 54.354 63.681 52.5387 63.681Z" fill="#B48956"/>
<path d="M21.0762 48.3255C21.0762 49.447 20.748 50.3913 20.09 51.1591C19.3566 52.0107 18.2328 52.4361 16.7166 52.4361H13.8014V57.0343H11.0508V44.2043H16.7166C18.0399 44.2043 19.0904 44.5572 19.8732 45.2623C20.6747 45.9965 21.0762 47.0171 21.0762 48.3255ZM18.3988 48.3255C18.3988 47.5711 18.1573 47.041 17.6713 46.7367C17.2833 46.5019 16.7136 46.3838 15.9599 46.3838H13.8007V50.2559H15.9599C16.7001 50.2559 17.2698 50.1348 17.6713 49.8926C18.1566 49.6017 18.3988 49.0799 18.3988 48.3255Z" fill="white"/>
<path d="M33.9367 50.5572C33.9367 52.4735 33.4694 54.0062 32.5356 55.1554C31.5248 56.4077 30.0863 57.0343 28.2171 57.0343H22.7891V44.2043H28.2171C29.9135 44.2043 31.2713 44.7187 32.2963 45.7505C33.3887 46.8571 33.9367 48.46 33.9367 50.5572ZM31.1547 50.8272C31.1547 47.9972 29.9464 46.5812 27.5322 46.5812H25.5397V54.6679H28.0092C28.9094 54.6679 29.6384 54.3838 30.1992 53.8163C30.8354 53.1666 31.1547 52.17 31.1547 50.8272Z" fill="white"/>
<path d="M44.6715 46.5812H38.5893V49.5501H43.8401V51.7303H38.5893V57.035H35.8379V44.2051H44.6715V46.5812Z" fill="white"/>
</svg>
